<svg width="270" height="80" viewBox="0 0 270 80" fill="none" xmlns="http://www.w3.org/2000/svg">
<path d="M28.1729 48.5001H23.2714L28.3464 38.408V39.3623L23.4594 30.022H28.2597L31.5128 36.5862H31.7586L35.0118 30.022H39.8121L34.9106 39.3623V38.408L39.9856 48.5001H35.0841L31.7586 41.4588H31.5128L28.1729 48.5001ZM57.5934 45.406V49.2809L49.5834 48.9628C46.335 48.8279 43.9975 48.1001 42.571 46.7795C41.1444 45.459 40.4311 43.5071 40.4311 40.9238V37.5694C40.4311 35.0343 41.1058 33.0776 42.4553 31.6992C43.8144 30.3112 45.829 29.6172 48.499 29.6172C50.2726 29.6172 51.757 29.9256 52.9522 30.5425C54.1475 31.1594 55.0439 32.0607 55.6415 33.2463C56.2488 34.4223 56.5524 35.8585 56.5524 37.555V40.0563C56.5524 40.866 56.456 41.5841 56.2632 42.2106C56.0801 42.8275 55.8102 43.3577 55.4536 43.8011C55.1066 44.2348 54.6824 44.5867 54.1812 44.8566C53.68 45.1168 53.1161 45.3 52.4896 45.406V45.5795L57.5934 45.406ZM48.9038 45.1746L49.381 45.1891C49.7569 45.0831 50.0991 44.9144 50.4075 44.6831C50.716 44.4517 50.9859 44.1625 51.2172 43.8155C51.4485 43.4685 51.6269 43.054 51.7522 42.5721C51.8871 42.0805 51.9546 41.5263 51.9546 40.9094V37.3815C51.9546 36.0802 51.6702 35.0825 51.1015 34.3885C50.5328 33.6945 49.6653 33.3475 48.499 33.3475C47.3327 33.3475 46.4651 33.6945 45.8964 34.3885C45.3277 35.0825 45.0434 36.0802 45.0434 37.3815V41.1118C45.0434 42.4131 45.3904 43.4059 46.0844 44.0902C46.7784 44.7746 47.7182 45.1361 48.9038 45.1746Z" fill="white"/>
<rect x="1.92145" y="1.82843" width="76.7693" height="76.3432" rx="1.60651" stroke="white" stroke-width="3.21302" stroke-linecap="round" stroke-dasharray="6.43 6.43"/>
<path d="M2108 4705 c-24 -41 -46 -75 -50 -75 -4 0 -48 18 -98 40 -50 22 -96
40 -103 40 -7 0 -35 -45 -62 -101 -28 -55 -53 -103 -58 -106 -4 -2 -47 19 -97
46 -49 28 -96 51 -105 51 -25 0 -42 -40 -71 -167 -15 -68 -32 -123 -38 -123
-6 0 -51 23 -100 50 -49 28 -96 50 -106 50 -21 0 -22 -6 -46 -155 -9 -60 -20
-114 -24 -118 -4 -5 -58 1 -121 12 -62 12 -119 21 -126 21 -10 0 -13 -34 -13
-150 l0 -150 -24 0 c-13 0 -70 5 -126 10 -137 15 -137 15 -99 -134 16 -61 29
-118 29 -127 0 -12 -27 -19 -131 -34 -88 -12 -133 -23 -136 -32 -3 -7 13 -66
36 -130 23 -64 39 -118 37 -120 -2 -2 -64 -24 -138 -48 -147 -48 -158 -59
-116 -111 13 -16 48 -59 77 -96 l52 -67 -139 -70 -139 -69 64 -69 c36 -37 73
-80 84 -95 l19 -26 -115 -82 c-63 -44 -115 -83 -115 -87 0 -3 26 -36 57 -72
31 -36 64 -74 72 -84 14 -16 9 -24 -57 -90 -96 -96 -96 -109 -2 -202 39 -38
70 -73 70 -76 0 -4 -23 -34 -50 -67 -28 -33 -50 -66 -50 -73 1 -8 34 -52 75
-98 l74 -85 -29 -40 c-17 -22 -30 -48 -30 -58 0 -10 34 -56 75 -102 59 -66 75
-91 75 -115 0 -26 44 -85 256 -344 141 -171 264 -315 273 -318 17 -7 142 -145
160 -176 8 -15 15 -16 50 -7 l40 11 73 -75 73 -75 56 20 56 21 42 -53 c22 -30
41 -58 41 -64 0 -23 52 -9 106 29 32 22 61 40 65 40 5 0 30 -27 56 -60 28 -35
56 -60 67 -60 10 0 46 24 80 53 83 73 83 73 102 35 17 -35 69 -88 85 -88 5 0
9 6 9 13 0 7 34 46 75 87 41 41 75 69 75 62 0 -19 89 -102 110 -102 11 0 34
24 59 63 22 35 54 75 69 90 l29 28 27 -36 c21 -28 34 -35 60 -35 31 0 38 7 96
95 34 52 65 95 67 95 3 0 27 -18 53 -40 47 -39 80 -51 80 -29 0 6 23 53 50
104 l51 93 67 -19 c37 -10 72 -19 77 -19 6 0 25 44 43 98 l32 99 70 -12 c40
-7 73 -8 76 -3 3 5 16 39 28 76 l23 67 366 3 c337 2 366 4 371 20 3 9 13 57
22 106 17 87 18 89 33 65 44 -66 101 -126 139 -145 78 -40 172 -45 762 -42
541 3 557 4 621 26 69 23 170 83 205 123 12 13 36 46 53 73 17 28 31 45 31 39
0 -5 -11 -65 -25 -133 -14 -68 -25 -124 -25 -126 0 -2 174 -4 388 -4 l388 0
48 248 c27 136 52 256 56 266 5 14 37 -58 112 -245 l106 -264 358 -3 359 -2
161 732 161 733 151 3 c84 1 152 0 152 -2 0 -6 -289 -1414 -297 -1443 l-5 -23
379 0 379 0 158 722 c88 398 161 729 164 736 5 14 302 18 302 4 0 -9 -284
-1394 -295 -1440 l-5 -22 1534 0 1535 0 10 38 c8 30 117 477 136 559 5 23 8
23 155 23 114 0 150 -3 150 -13 0 -6 -27 -142 -60 -300 -33 -159 -60 -293 -60
-298 0 -6 149 -8 377 -7 l377 3 18 85 c10 46 20 86 22 88 2 2 28 -22 57 -53
117 -124 124 -125 792 -125 318 0 547 4 587 11 121 19 255 90 325 171 39 47
86 141 115 233 33 108 259 1179 266 1264 8 92 -8 205 -38 269 -12 26 -46 70
-75 99 -47 46 -60 53 -130 70 -71 16 -132 18 -658 18 -518 0 -587 -2 -648 -17
-130 -34 -210 -87 -259 -175 l-31 -54 -39 65 c-65 110 -139 154 -292 175 -53
8 -627 11 -1807 11 -1146 0 -1729 3 -1729 10 0 7 -292 10 -855 10 -563 0 -855
-3 -855 -10 0 -6 -111 -10 -314 -10 l-314 0 -20 -87 c-11 -49 -44 -194 -72
-323 -29 -129 -56 -238 -59 -242 -4 -4 -54 140 -112 320 l-105 327 -335 3
-336 2 -38 -172 c-20 -95 -41 -177 -45 -181 -4 -4 -10 15 -13 43 -13 106 -77
205 -164 252 -95 51 -122 53 -748 53 -510 0 -588 -2 -645 -17 -102 -26 -159
-54 -178 -88 -24 -42 -30 -37 -21 18 16 97 20 92 -76 92 -47 0 -85 3 -85 8 0
13 50 82 60 82 6 0 10 5 10 10 0 6 -7 10 -15 10 -17 0 -135 57 -135 65 0 13
84 171 93 177 14 8 17 6 -65 46 -38 17 -68 36 -68 41 0 5 14 46 30 91 17 45
30 85 30 89 0 5 -34 23 -75 41 -41 18 -75 36 -75 39 0 4 10 36 22 71 11 35 17
65 12 67 -5 2 -43 18 -84 36 l-75 33 -3 66 -3 65 -99 46 c-95 44 -100 48 -100
77 0 28 -5 34 -53 55 -116 51 -957 385 -971 385 -7 0 -20 -9 -27 -19 -14 -19
-17 -19 -138 26 l-125 45 -18 -22 c-9 -12 -25 -33 -35 -46 l-18 -24 -112 45
c-62 25 -115 45 -118 45 -2 0 -24 -34 -47 -75z m437 -120 c85 -31 194 -74 243
-98 l88 -42 -61 -113 -62 -113 -74 85 c-41 47 -79 86 -85 86 -6 0 -36 15 -66
33 -30 17 -135 70 -235 117 l-180 85 30 62 31 61 108 -54 c60 -30 178 -79 263
-109z m95 97 c41 -16 170 -71 285 -122 116 -51 220 -96 233 -101 22 -9 22 -10
-29 -83 -29 -41 -62 -87 -74 -102 l-23 -28 -51 102 c-28 56 -51 108 -51 115 0
9 -41 29 -107 52 -60 21 -170 69 -246 107 l-138 69 17 28 17 29 46 -18 c25
-10 80 -31 121 -48z m-655 -72 c39 -17 170 -72 293 -121 244 -98 262 -107 261
-129 0 -8 -26 -68 -57 -132 l-57 -117 -98 77 c-82 64 -134 94 -318 181 -191
91 -219 107 -213 123 3 11 21 53 40 94 38 84 23 81 149 24z m1105 -60 c8 -5
11 -10 5 -10 -5 0 -17 5 -25 10 -8 5 -10 10 -5 10 6 0 17 -5 25 -10z m-1217
-161 c177 -89 324 -163 326 -165 5 -4 -70 -284 -76 -284 -7 0 -541 298 -594
331 l-46 29 31 125 c17 69 32 125 33 125 2 0 148 -72 326 -161z m1414 83 l173
-68 -80 -79 c-91 -91 -80 -97 -121 62 l-23 91 -66 30 c-36 17 -63 30 -60 31 3
0 83 -30 177 -67z m-51 -153 c13 -52 27 -102 30 -111 3 -12 15 -18 34 -18 23
0 43 16 103 80 40 44 76 80 79 80 3 0 9 -35 12 -77 12 -138 15 -153 38 -153
12 0 48 24 82 54 34 29 71 56 84 60 22 7 22 7 22 -108 0 -73 4 -117 11 -122 6
-3 14 -2 18 3 3 5 31 24 61 41 30 18 66 40 79 49 l24 17 -5 -34 c-3 -19 -11
-74 -18 -122 -8 -48 -11 -90 -8 -94 7 -7 102 19 155 42 17 8 35 14 41 14 5 0
-8 -46 -28 -102 -61 -166 -61 -151 2 -145 29 3 72 9 96 15 31 7 42 6 39 -2 -3
-6 -17 -42 -32 -81 -16 -38 -32 -74 -36 -80 -5 -5 -9 -24 -9 -43 l0 -34 43 7
c23 3 57 9 75 12 l33 5 -56 -112 c-56 -112 -56 -112 -36 -131 15 -14 35 -19
76 -19 l56 0 -23 -40 -23 -40 -192 0 -192 0 -15 53 c-42 143 -154 314 -264
400 -173 135 -347 185 -600 174 -275 -13 -486 -87 -756 -263 -139 -92 -204
-143 -315 -250 l-96 -92 -256 51 -257 51 -5 46 c-3 25 -9 60 -13 78 l-6 32
151 0 151 0 0 161 c0 148 1 160 18 155 9 -3 65 -17 124 -32 126 -31 138 -26
138 49 0 24 4 57 9 73 5 16 14 61 21 101 l12 72 109 -54 c117 -59 129 -63 129
-40 0 8 5 15 10 15 6 0 10 14 10 30 0 17 4 38 9 48 12 24 27 78 42 147 7 33
14 62 15 64 2 2 45 -29 97 -68 51 -39 100 -71 109 -71 10 0 25 21 39 55 12 30
26 55 31 55 4 0 8 7 8 15 0 8 14 45 31 82 l31 68 59 -65 c33 -36 67 -77 76
-92 28 -45 42 -36 83 49 14 29 28 53 33 53 4 0 7 4 7 9 0 5 14 32 32 60 36 59
29 64 103 -72 38 -71 51 -88 68 -85 13 2 43 40 91 115 39 61 72 110 74 109 1
-2 14 -46 28 -97z m-1656 -142 c140 -75 261 -146 268 -157 11 -18 10 -41 -3
-133 -9 -62 -18 -124 -21 -138 -5 -26 -11 -22 -322 164 -174 105 -318 191
-320 192 -1 1 11 59 29 129 l32 126 41 -23 c22 -14 156 -85 296 -160z m-531
-135 c53 -37 185 -122 293 -187 l197 -120 1 -122 c0 -68 -2 -123 -4 -123 -3 0
-137 85 -298 188 l-293 189 -3 121 c-1 67 0 122 4 122 3 0 49 -31 103 -68z
m-92 -438 l278 -195 18 -97 c9 -53 16 -102 15 -108 -2 -6 -124 78 -273 186
l-269 198 -28 98 c-29 104 -31 114 -24 114 3 0 130 -88 283 -196z m2109 58
c50 -75 96 -190 119 -292 26 -121 31 -329 10 -446 -9 -55 -20 -102 -24 -107
-4 -4 -15 54 -25 130 -10 76 -20 148 -23 161 l-5 22 -377 0 -376 0 -180 -852
c-120 -568 -185 -858 -196 -869 -21 -21 -161 -56 -284 -70 -72 -9 -123 -9
-194 -1 -100 12 -225 45 -236 63 -15 24 -35 193 -35 294 1 711 540 1546 1216
1884 176 88 395 151 509 148 l60 -2 41 -63z m546 -159 c95 -97 163 -213 196
-335 l10 -38 -63 0 c-60 0 -63 -1 -75 -30 -7 -16 -15 -30 -19 -30 -3 0 -33
107 -65 238 -32 130 -61 243 -63 250 -10 27 16 9 79 -55z m-572 -460 c-1 -25
144 -959 150 -966 3 -4 135 212 292 480 l286 488 306 3 c168 1 306 1 306 -1 0
-2 -92 -445 -205 -986 -113 -540 -205 -984 -205 -987 0 -2 -133 -4 -295 -4
-163 0 -295 4 -295 9 0 5 16 84 36 176 19 92 33 169 31 171 -2 3 -46 -77 -98
-176 l-94 -180 -262 0 c-145 0 -263 1 -263 3 0 4 -40 390 -41 397 0 3 -24 -85
-52 -195 l-52 -200 -282 -3 c-223 -2 -283 0 -283 10 0 13 398 1933 405 1956 3
9 74 12 310 12 168 0 305 -3 305 -7z m2775 -2 c127 -11 175 -26 225 -69 66
-56 83 -100 88 -222 4 -102 1 -119 -82 -510 -48 -223 -107 -501 -132 -619 -25
-118 -54 -237 -64 -265 -48 -124 -148 -219 -274 -259 -70 -22 -78 -22 -626
-22 -653 0 -652 0 -732 85 -65 70 -80 120 -76 262 3 100 18 179 126 680 67
311 131 590 142 620 25 68 82 163 122 205 65 67 173 106 323 116 112 7 867 6
960 -2z m1112 -43 c11 -29 82 -229 159 -445 76 -215 142 -389 145 -385 4 4 53
201 109 437 56 237 104 433 107 438 2 4 130 7 284 7 217 0 279 -3 279 -12 0
-7 -92 -452 -204 -988 l-203 -975 -295 -3 -296 -2 -15 37 c-8 21 -74 192 -147
381 -73 188 -135 340 -137 339 -2 -2 -41 -172 -86 -378 l-84 -374 -285 -3
-285 -2 18 87 c152 737 390 1871 394 1881 3 9 65 12 263 12 l259 0 20 -52z
m4893 49 c0 -2 -92 -446 -205 -987 -113 -541 -205 -985 -205 -987 0 -2 -128
-3 -285 -3 -157 0 -285 1 -285 3 0 1 77 369 170 817 94 448 169 819 167 825
-2 5 -14 -32 -26 -83 l-23 -92 -531 -2 -531 -3 -18 -95 c-9 -52 -17 -103 -17
-112 -1 -17 17 -18 234 -18 129 0 235 -3 235 -7 -1 -5 -24 -116 -53 -248 l-53
-240 -240 -5 -239 -5 -17 -95 c-9 -52 -17 -105 -17 -117 l-1 -23 526 0 526 0
-4 -22 c-3 -13 -27 -125 -54 -250 l-49 -228 -822 0 c-704 0 -823 2 -823 14 0
8 74 351 164 763 91 411 167 771 170 798 4 40 2 35 -12 -25 l-17 -75 -250 -3
-250 -2 -149 -728 c-82 -400 -152 -730 -155 -735 -4 -4 -138 -6 -298 -5 l-290
3 158 715 c87 393 158 723 159 733 0 16 -17 17 -220 17 -203 0 -220 1 -220 18
0 9 23 124 51 255 l52 237 1873 0 c1031 0 1874 -1 1874 -3z m1461 -21 c83 -21
129 -59 168 -138 29 -57 31 -69 31 -168 0 -91 -7 -139 -49 -326 -27 -120 -52
-237 -56 -258 -8 -46 -66 -166 -89 -185 -11 -10 -13 -18 -6 -31 6 -10 10 -60
10 -110 0 -77 -10 -135 -66 -373 -36 -155 -70 -301 -76 -325 l-10 -42 -284 0
-284 0 5 23 c90 386 125 556 123 580 l-3 30 -240 -2 c-132 -1 -241 -4 -243 -6
-2 -2 -31 -131 -63 -287 -32 -156 -61 -295 -65 -310 l-6 -28 -294 0 c-162 0
-294 2 -294 5 0 2 83 381 185 842 181 824 245 1118 245 1129 0 3 291 4 648 1
565 -4 655 -6 713 -21z m1836 0 c57 -14 80 -25 112 -56 83 -81 103 -166 81
-344 -18 -144 -224 -1107 -255 -1196 -84 -235 -178 -321 -379 -349 -103 -15
-989 -15 -1092 0 -124 17 -202 68 -248 161 -33 67 -36 175 -6 271 11 36 72
310 135 609 63 298 120 561 126 583 42 152 149 268 291 314 73 24 210 29 683
27 418 -2 489 -5 552 -20z m-14249 -401 c-3 -3 -9 2 -12 12 -6 14 -5 15 5 6 7
-7 10 -15 7 -18z m-269 -312 l204 -198 -116 -88 c-64 -48 -121 -87 -126 -87
-18 0 -504 527 -499 541 2 5 48 39 103 78 l100 69 65 -58 c36 -32 157 -147
269 -257z m10434 120 c2 -5 -35 -176 -82 -380 l-85 -373 -443 0 c-436 0 -443
0 -443 20 0 19 7 20 248 20 l247 0 73 338 c40 185 73 343 72 350 0 9 -56 12
-245 12 -157 0 -245 4 -245 10 0 12 897 14 903 3z m-10288 -123 c-3 -5 -12
-10 -18 -10 -7 0 -6 4 3 10 19 12 23 12 15 0z m-375 -236 c157 -159 200 -196
284 -247 l98 -60 -98 -93 c-55 -51 -102 -93 -105 -94 -4 0 -33 30 -65 68 -32
37 -115 126 -185 197 -71 72 -155 166 -188 210 l-60 80 62 63 c34 34 64 62 67
62 3 0 89 -84 190 -186z m-9 -359 c95 -107 177 -195 184 -195 15 0 188 -69
199 -80 7 -7 -36 -59 -149 -178 l-22 -23 -169 203 c-151 180 -275 338 -298
376 -6 9 5 27 30 53 21 21 41 39 45 39 4 0 84 -88 180 -195z m299 -99 c0 -2
-8 -10 -17 -17 -16 -13 -17 -12 -4 4 13 16 21 21 21 13z m-267 -207 c74 -91
142 -171 151 -178 9 -8 16 -22 16 -32 0 -11 1 -19 3 -20 1 -1 55 -6 119 -13
l118 -11 -60 -95 c-33 -52 -64 -96 -68 -98 -9 -3 -287 326 -416 491 l-77 98
22 30 c26 37 6 55 192 -172z m-45 -119 c7 -11 11 -20 9 -20 -2 0 -12 9 -22 20
-10 11 -14 20 -9 20 5 0 15 -9 22 -20z m200 -238 c80 -95 130 -163 90 -122
-39 40 -197 229 -217 260 l-23 35 32 -35 c18 -19 71 -82 118 -138z m345 -169
c-8 -21 -31 -69 -50 -108 l-36 -70 -16 24 c-9 14 -37 53 -63 88 -27 35 -48 68
-48 72 0 5 51 13 113 18 61 5 113 11 114 11 1 1 -5 -15 -14 -35z m146 -235
c-12 -29 -26 -66 -31 -81 l-11 -29 -58 58 c-33 32 -59 61 -59 65 0 5 106 28
172 38 4 1 -2 -23 -13 -51z m185 -145 c-4 -21 -12 -56 -18 -77 l-11 -39 -44
52 c-24 28 -40 55 -37 59 9 9 87 40 104 41 10 1 11 -9 6 -36z m206 -134 c0
-56 -1 -60 -17 -48 -9 8 -24 27 -34 44 -18 29 -18 29 9 47 15 10 30 18 35 18
4 0 7 -28 7 -61z"/>
<path d="M2556 2983 c-3 -10 -89 -405 -191 -878 -102 -473 -189 -870 -192
-882 l-5 -23 195 0 c194 0 195 0 200 23 3 12 44 213 92 447 80 397 103 493
104 448 1 -10 24 -216 51 -458 28 -242 50 -445 50 -450 0 -7 67 -9 186 -8
l186 3 251 462 c139 254 253 458 255 454 1 -4 -38 -205 -88 -447 -49 -241 -90
-447 -90 -457 0 -16 13 -17 182 -15 l181 3 193 890 c106 490 193 893 194 898
0 4 -102 7 -227 7 l-228 0 -329 -576 c-182 -316 -332 -577 -336 -579 -3 -2
-47 249 -98 558 -52 309 -96 570 -98 580 -5 15 -24 17 -219 17 -195 0 -214 -2
-219 -17z"/>
<path d="M4855 2989 c-151 -23 -218 -63 -272 -166 -49 -92 -66 -157 -181 -703
-149 -703 -153 -741 -94 -824 58 -81 164 -96 684 -96 377 0 490 7 583 37 123
39 180 87 227 191 11 24 78 316 149 650 110 516 129 620 129 695 0 138 -22
170 -137 204 -50 15 -123 17 -543 19 -267 1 -512 -2 -545 -7z m785 -336 c30
-25 31 -29 27 -82 -8 -94 -175 -887 -198 -942 -19 -43 -30 -55 -68 -73 -43
-19 -66 -21 -324 -24 -245 -3 -283 -1 -315 13 -21 10 -43 24 -49 33 -28 35
-14 135 72 513 128 560 130 564 187 573 70 12 102 13 365 15 l271 1 32 -27z"/>
<path d="M4977 2529 c-9 -5 -23 -22 -31 -38 -23 -44 -197 -821 -194 -866 2
-32 7 -40 28 -46 14 -4 113 -7 220 -7 224 -1 323 12 328 44 9 50 193 862 201
886 7 20 5 28 -6 32 -27 11 -527 6 -546 -5z m434 -96 c0 -5 -35 -176 -78 -380
l-78 -373 -204 0 c-158 0 -202 3 -198 13 2 6 37 167 76 357 40 190 77 355 83
368 11 22 14 22 205 22 106 0 193 -3 194 -7z"/>
<path d="M6515 2988 c-5 -17 -385 -1771 -385 -1781 0 -4 88 -7 195 -7 107 0
195 3 195 6 0 12 211 998 214 1001 1 2 90 -224 196 -502 l193 -505 213 0 c117
0 215 4 218 8 6 10 386 1761 386 1779 0 10 -44 13 -192 13 l-193 0 -114 -563
c-63 -309 -117 -570 -120 -579 -4 -10 -73 174 -170 450 -90 257 -182 518 -204
580 l-40 112 -194 0 c-146 0 -195 -3 -198 -12z"/>
<path d="M8156 2863 c-15 -76 -30 -148 -33 -160 l-5 -23 226 0 c124 0 226 -3
226 -7 0 -4 -67 -335 -150 -736 -82 -401 -150 -731 -150 -733 0 -2 83 -4 185
-4 102 0 185 3 185 8 0 16 319 1453 325 1462 4 6 98 10 250 10 l245 0 5 23
c13 56 55 271 55 283 0 12 -111 14 -669 14 l-668 0 -27 -137z"/>
<path d="M9715 2978 c-13 -57 -55 -272 -55 -284 0 -12 119 -14 723 -14 l723 0
28 148 c16 81 31 153 34 160 3 9 -145 12 -722 12 l-726 0 -5 -22z"/>
<path d="M11380 2992 c0 -5 -85 -403 -190 -885 -104 -482 -190 -884 -190 -892
0 -13 25 -15 192 -13 l193 3 182 885 c100 487 182 891 182 898 1 9 -42 12
-184 12 -102 0 -185 -4 -185 -8z"/>
<path d="M9531 2764 c0 -11 3 -14 6 -6 3 7 2 16 -1 19 -3 4 -6 -2 -5 -13z"/>
<path d="M11181 2744 c0 -11 3 -14 6 -6 3 7 2 16 -1 19 -3 4 -6 -2 -5 -13z"/>
<path d="M9521 2714 c0 -11 3 -14 6 -6 3 7 2 16 -1 19 -3 4 -6 -2 -5 -13z"/>
<path d="M9605 2458 c-3 -13 -59 -290 -125 -616 -66 -326 -123 -604 -126 -617
l-6 -25 726 0 c399 0 726 2 726 3 0 2 14 71 30 152 17 81 30 154 30 162 0 11
-94 13 -535 13 -454 0 -535 2 -535 14 0 13 62 316 77 374 l5 22 249 0 c137 0
249 2 249 3 0 2 14 71 30 152 17 81 30 152 30 157 0 4 -106 8 -235 8 -131 0
-235 4 -235 9 0 5 9 53 20 106 11 53 20 99 20 101 0 2 -88 4 -195 4 -194 0
-195 0 -200 -22z"/>
<path d="M12016 2858 c-20 -79 -39 -151 -42 -160 -5 -17 23 -18 491 -18 l497
0 34 -34 c38 -38 40 -55 19 -135 -8 -31 -21 -92 -29 -135 -18 -95 -52 -166
-86 -183 -18 -9 -110 -13 -338 -13 l-312 0 5 23 c16 68 55 258 55 267 0 6 -65
10 -182 10 l-183 0 -138 -628 c-75 -345 -137 -633 -137 -640 0 -10 42 -12 193
-10 l192 3 65 323 65 322 306 0 c403 0 379 16 334 -229 -13 -75 -36 -194 -50
-266 -14 -71 -25 -136 -25 -143 0 -10 40 -12 183 -10 l182 3 62 275 c49 219
62 293 63 362 0 97 -9 127 -48 151 -19 12 -22 17 -10 17 19 0 78 47 78 61 0 6
13 27 30 47 21 26 34 60 45 117 9 44 35 159 57 255 46 205 56 296 38 369 -15
65 -49 94 -137 117 -60 16 -133 18 -654 21 l-585 4 -38 -143z"/>
<path d="M12380 2537 c0 -2 -13 -71 -30 -152 -16 -81 -30 -152 -30 -157 0 -11
382 -10 439 1 51 10 71 31 71 76 0 18 9 58 20 90 25 71 26 130 4 139 -16 6
-474 9 -474 3z m382 -117 c-2 -8 -6 -36 -9 -62 l-6 -48 -152 0 -152 0 9 53 c5
28 11 58 13 65 4 10 39 12 152 10 124 -3 147 -5 145 -18z"/>
<path d="M14025 2989 c-147 -21 -196 -53 -251 -162 -47 -91 -63 -153 -169
-654 -58 -271 -114 -533 -125 -583 -22 -98 -26 -194 -10 -252 16 -57 66 -93
157 -115 70 -16 128 -18 548 -18 428 0 476 2 540 19 121 32 189 68 222 117 35
51 75 148 97 234 33 130 224 1055 235 1140 18 137 -5 212 -74 241 -90 37 -194
44 -659 43 -248 -1 -478 -5 -511 -10z m805 -336 c36 -33 38 -49 22 -128 -27
-125 -184 -832 -194 -870 -13 -50 -62 -100 -113 -114 -25 -7 -144 -11 -307
-11 -242 0 -271 2 -312 20 -53 22 -64 50 -49 114 46 184 193 836 193 856 0 27
28 92 53 125 21 27 78 32 404 34 l273 1 30 -27z"/>
<path d="M14161 2531 c-22 -6 -29 -31 -128 -456 -57 -248 -105 -459 -106 -469
-3 -30 27 -34 250 -35 203 -1 292 9 324 36 21 17 21 20 124 472 88 386 97 444
69 455 -21 8 -503 6 -533 -3z m439 -111 c0 -24 -147 -718 -155 -731 -10 -15
-395 -12 -395 4 0 6 35 177 77 380 l78 367 197 0 c190 0 198 -1 198 -20z"/>
<path d="M5287 4385 c-200 -34 -344 -102 -457 -215 -115 -115 -170 -236 -170
-376 0 -159 74 -253 240 -305 84 -27 283 -36 444 -20 178 17 166 8 270 218 55
111 87 187 83 197 -5 14 -25 16 -140 16 -115 0 -136 -2 -150 -17 -8 -10 -38
-66 -65 -125 -48 -103 -52 -107 -87 -114 -57 -10 -160 1 -197 23 -51 29 -81
95 -75 165 11 125 98 241 230 304 104 49 197 64 403 64 l174 0 7 28 c3 15 7
56 7 92 1 64 1 65 -29 71 -54 12 -407 7 -488 -6z"/>
<path d="M9518 4240 c-233 -40 -423 -173 -512 -360 -25 -54 -31 -80 -34 -150
-3 -74 0 -91 21 -130 30 -57 87 -101 163 -126 83 -27 268 -25 377 4 242 66
433 249 468 451 28 159 -54 269 -227 306 -74 16 -180 18 -256 5z m121 -191
c126 -44 43 -288 -129 -377 -57 -30 -72 -33 -124 -30 -51 4 -63 9 -87 36 -39
43 -39 97 -1 177 35 72 70 116 126 154 73 50 147 63 215 40z"/>
<path d="M6535 4226 c-50 -16 -121 -51 -160 -80 -54 -40 -58 -41 -41 -8 9 17
16 42 16 57 l0 25 -113 0 c-131 0 -127 2 -172 -100 -15 -36 -88 -185 -161
-332 -74 -148 -134 -277 -134 -288 0 -19 6 -20 128 -20 70 0 132 4 138 8 6 4
39 61 74 127 107 204 183 295 292 351 45 24 68 28 155 32 60 3 106 9 112 16
12 14 41 138 41 175 0 15 -5 32 -12 39 -16 16 -111 14 -163 -2z"/>
<path d="M8534 4221 c-33 -9 -91 -34 -128 -54 -53 -29 -65 -33 -56 -18 5 11
10 31 10 45 l0 26 -118 0 c-101 0 -121 -3 -135 -17 -26 -29 -468 -906 -470
-933 l-2 -25 135 0 135 0 57 110 56 110 164 0 c150 1 169 3 243 28 244 82 437
291 470 510 16 104 -35 199 -122 225 -57 17 -167 14 -239 -7z m20 -222 c34
-27 34 -64 0 -135 -34 -72 -110 -149 -181 -182 -48 -22 -75 -27 -155 -30 -68
-3 -98 0 -98 7 0 7 13 38 29 69 61 121 183 238 284 273 68 24 89 23 121 -2z"/>
<path d="M6937 4203 c-8 -10 -68 -125 -133 -256 -111 -223 -119 -242 -122
-307 -5 -85 17 -128 82 -159 100 -49 305 -6 446 92 l34 24 16 -46 c23 -69 59
-86 185 -85 55 0 110 6 121 12 24 13 78 118 70 138 -3 7 -17 14 -32 16 -57 7
-53 20 86 297 72 145 129 270 126 277 -5 12 -31 14 -138 12 l-133 -3 -65 -124
c-113 -214 -252 -361 -376 -397 -50 -14 -57 -14 -79 0 -14 9 -25 25 -25 35 0
11 50 119 111 242 60 122 108 228 105 235 -4 11 -35 14 -134 14 -110 0 -131
-3 -145 -17z"/>
<path d="M6764 735 c-7 -19 -14 -41 -14 -50 0 -25 29 -17 36 11 5 18 10 22 17
15 18 -18 84 -14 90 7 2 9 8 25 12 35 5 13 2 17 -13 17 -11 0 -22 -7 -26 -15
-3 -8 -12 -15 -19 -15 -8 0 -20 7 -27 15 -20 24 -40 17 -56 -20z"/>
<path d="M3383 640 c-28 -11 -59 -72 -68 -133 -6 -42 -4 -52 19 -85 14 -21 44
-51 67 -68 59 -43 69 -53 69 -75 0 -40 -19 -59 -59 -59 -40 0 -63 18 -75 58
-5 15 -15 22 -32 22 -29 0 -32 -28 -8 -86 26 -64 51 -84 104 -84 40 0 51 5 84
39 31 32 38 47 43 95 10 95 -23 153 -108 188 -9 3 -23 20 -31 36 -13 25 -13
33 -1 56 12 22 20 27 46 24 25 -2 35 -10 47 -35 12 -25 21 -33 43 -33 31 0 33
12 16 73 -17 62 -90 93 -156 67z"/>
<path d="M4074 641 c-25 -11 -78 -71 -99 -112 -9 -16 -23 -72 -32 -124 -15
-90 -15 -96 6 -163 17 -58 27 -74 55 -91 43 -27 88 -27 129 1 130 85 170 381
63 463 -37 28 -90 40 -122 26z m75 -106 c28 -33 31 -42 31 -105 0 -38 -4 -79
-9 -92 -5 -13 -12 -35 -15 -50 -7 -33 -63 -70 -94 -61 -13 3 -29 18 -37 34
-17 31 -20 121 -6 165 5 16 12 42 16 58 6 27 57 86 75 86 4 0 22 -16 39 -35z"/>
<path d="M4686 638 c-4 -12 -56 -482 -56 -500 0 -5 52 -8 115 -8 l115 0 0 45
0 45 -75 0 c-90 0 -84 -23 -50 220 32 224 33 210 -10 210 -20 0 -37 -6 -39
-12z"/>
<path d="M5300 503 c-12 -82 -25 -178 -27 -214 -4 -62 -3 -68 29 -110 28 -36
41 -45 70 -47 83 -7 139 60 157 188 50 346 49 332 14 328 -27 -3 -27 -4 -49
-148 -40 -265 -48 -284 -113 -278 l-36 3 -3 63 c-2 35 6 126 18 203 11 78 20
145 20 150 0 5 -13 9 -28 9 l-29 0 -23 -147z"/>
<path d="M6072 643 c-50 -10 -118 -150 -129 -268 -8 -90 17 -181 62 -221 19
-17 35 -36 35 -43 0 -6 6 -11 14 -11 20 0 30 -38 16 -55 -7 -8 -20 -15 -30
-15 -10 0 -23 -7 -30 -15 -11 -13 -8 -15 22 -15 55 0 78 23 78 79 0 44 3 51
36 76 22 17 46 49 60 82 13 29 24 55 24 57 0 5 -59 26 -71 26 -5 0 -9 -9 -9
-21 0 -71 -91 -104 -119 -43 -16 35 -13 150 4 209 15 49 58 105 81 105 19 0
54 -49 54 -75 0 -21 2 -22 40 -12 44 12 44 14 9 95 -25 58 -73 79 -147 65z"/>
<path d="M6753 639 c-73 -22 -133 -166 -133 -319 0 -187 157 -256 253 -111 90
135 91 356 3 411 -42 25 -82 32 -123 19z m83 -104 c33 -44 41 -107 24 -183
-17 -74 -31 -95 -74 -116 -49 -23 -71 -10 -86 54 -25 104 36 280 96 280 7 0
25 -16 40 -35z"/>
<path d="M7370 646 c0 -13 -51 -465 -55 -488 l-4 -28 124 0 125 0 0 45 0 45
-86 0 -86 0 6 38 c18 101 9 92 91 92 41 0 76 3 78 8 3 4 8 26 12 50 l7 42 -87
0 -87 0 7 33 c14 71 9 67 101 67 l84 0 0 50 0 50 -115 0 c-63 0 -115 -2 -115
-4z"/>
<path d="M8060 641 c-36 -10 -50 -46 -50 -131 l0 -74 75 -73 c41 -39 75 -80
75 -90 -1 -34 -25 -53 -68 -53 -44 0 -62 18 -62 59 0 17 -6 21 -30 21 -29 0
-30 -2 -30 -43 0 -35 7 -51 36 -85 31 -37 40 -42 78 -42 78 0 136 74 135 175
0 42 -5 56 -32 87 -18 20 -48 45 -67 56 -43 23 -59 61 -40 97 24 44 100 23
100 -28 0 -12 9 -17 31 -17 31 0 31 1 24 37 -18 99 -75 132 -175 104z"/>
<path d="M8915 638 c-4 -13 -55 -472 -55 -495 0 -8 12 -13 28 -13 l28 0 37
253 c21 138 37 255 37 260 0 12 -70 8 -75 -5z"/>
<path d="M9396 618 c-5 -30 -56 -468 -56 -482 0 -3 13 -6 29 -6 32 0 30 -9 52
207 7 68 14 121 16 119 2 -2 22 -68 44 -147 22 -79 42 -152 45 -161 4 -12 15
-18 34 -18 35 0 30 -19 70 255 17 116 33 222 36 238 5 26 4 27 -34 27 -46 0
-42 11 -63 -197 -7 -68 -15 -123 -18 -123 -3 0 -22 71 -41 158 l-35 157 -37 3
c-35 3 -37 1 -42 -30z"/>
<path d="M10057 644 c-4 -4 -7 -27 -7 -51 l0 -43 50 0 51 0 -7 -52 c-4 -29
-17 -123 -29 -208 l-21 -155 24 -3 c13 -2 26 -1 29 2 4 4 58 359 63 414 0 1
23 2 51 2 l50 0 -3 48 -3 47 -121 3 c-66 1 -123 -1 -127 -4z"/>
<path d="M10704 603 c-4 -27 -21 -142 -38 -258 l-32 -210 124 -3 c69 -1 126
-1 127 0 2 2 6 22 10 46 l7 42 -91 0 c-49 0 -92 3 -94 8 -3 4 0 33 5 65 l10
57 84 0 84 0 0 50 0 50 -75 0 c-75 0 -75 0 -70 25 3 14 7 36 10 50 5 24 8 25
90 25 l85 0 0 50 0 50 -114 0 -115 0 -7 -47z"/>
<path d="M11445 643 c-70 -17 -133 -161 -135 -304 0 -76 34 -171 69 -192 54
-32 140 -18 183 30 10 11 25 57 33 104 9 46 18 92 21 102 5 15 -3 17 -76 17
l-81 0 3 -37 c3 -36 5 -38 41 -41 35 -3 37 -5 31 -30 -4 -15 -11 -35 -16 -44
-11 -22 -65 -32 -99 -19 -82 31 -48 294 42 331 43 18 80 -2 94 -51 9 -33 11
-34 38 -25 26 9 28 14 24 43 -11 63 -36 102 -76 113 -37 10 -62 11 -96 3z"/>
<path d="M12060 641 c0 -6 -16 -116 -35 -245 -19 -130 -35 -243 -35 -251 0
-10 10 -15 35 -15 40 0 41 1 50 133 l7 87 28 0 c36 0 38 -3 76 -120 28 -87 34
-95 58 -98 27 -3 27 -3 21 45 -4 26 -16 75 -27 107 -16 48 -17 61 -6 67 7 5
16 9 19 9 4 0 19 22 33 50 19 37 26 64 26 107 0 66 -4 74 -50 108 -30 22 -44
25 -117 25 -46 0 -83 -4 -83 -9z m178 -139 c3 -35 -1 -46 -20 -62 -23 -19
-102 -28 -111 -12 -3 4 0 33 5 65 l10 58 57 -3 56 -3 3 -43z"/>
<path d="M12831 628 c-5 -13 -37 -102 -71 -198 -34 -96 -73 -203 -86 -237
l-23 -63 39 0 39 0 17 60 17 61 56 -3 56 -3 9 -57 c9 -55 11 -58 38 -58 l29 0
-6 58 c-4 31 -17 147 -28 257 l-22 200 -27 3 c-22 3 -30 -2 -37 -20z m38 -265
l1 -43 -45 0 c-25 0 -45 1 -45 3 0 6 60 181 67 197 7 15 20 -77 22 -157z"/>
<path d="M13415 638 c-5 -13 -75 -481 -75 -499 0 -13 123 -11 171 3 50 16 99
72 123 142 19 59 22 245 5 279 -7 11 -26 36 -44 54 -30 31 -36 33 -104 33 -48
0 -73 -4 -76 -12z m155 -120 c26 -43 26 -116 -1 -199 -25 -74 -48 -99 -95 -99
-32 0 -34 2 -34 33 0 36 28 265 35 285 2 6 20 12 40 12 29 0 39 -6 55 -32z"/>
<path d="M14186 642 c-8 -14 -186 -495 -186 -505 0 -4 17 -7 37 -5 35 3 37 6
56 61 l19 58 56 -3 57 -3 9 -57 c8 -55 10 -58 37 -58 35 0 33 -25 13 255 -19
279 -16 265 -59 265 -18 0 -36 -4 -39 -8z m33 -269 l1 -53 -45 0 c-25 0 -45 2
-45 4 0 3 17 51 37 108 l38 103 6 -55 c4 -30 7 -79 8 -107z"/>
<path d="M14812 640 c-44 -19 -78 -139 -53 -188 5 -9 14 -28 21 -42 6 -14 29
-38 51 -55 63 -48 69 -55 69 -84 0 -37 -17 -51 -61 -51 -28 0 -41 6 -53 25 -9
13 -16 31 -16 40 0 10 -10 15 -30 15 -27 0 -30 -3 -30 -29 0 -17 5 -33 10 -36
6 -3 10 -13 10 -22 0 -9 11 -31 26 -50 22 -30 30 -33 75 -33 44 0 54 4 80 33
41 43 49 67 49 141 0 58 -3 66 -31 94 -18 17 -47 38 -66 47 -42 20 -58 58 -42
97 10 24 17 29 43 26 24 -2 34 -11 46 -35 12 -26 21 -33 44 -33 28 0 29 0 24
51 -3 32 -12 58 -25 70 -22 23 -106 34 -141 19z"/>
</g>
</svg>

